<svg width="100" height="48" viewBox="0 0 100 48" fill="none" xmlns="http://www.w3.org/2000/svg">
<path d="M34.2906 14.644C36.9946 14.8173 39.1786 15.7187 40.8426 17.348C42.5066 18.9773 43.3386 20.988 43.3386 23.38C43.3386 25.252 42.9053 26.9333 42.0386 28.424C41.172 29.9147 39.976 31.0933 38.4506 31.96C36.9253 32.792 35.244 33.208 33.4066 33.208C32.228 33.208 30.98 33.156 29.6626 33.052C29.1773 33.0173 28.6053 32.9827 27.9466 32.948C27.288 32.9133 26.5426 32.896 25.7106 32.896L22.2786 32.948C21.6546 32.9827 20.788 33 19.6786 33C19.6093 33 19.5746 32.896 19.5746 32.688C19.5746 32.48 19.6093 32.376 19.6786 32.376C21.0653 32.376 22.0706 32.2893 22.6946 32.116C23.3533 31.9427 23.804 31.6133 24.0466 31.128C24.2893 30.608 24.4106 29.828 24.4106 28.788V4.71199C24.4106 3.67199 24.2893 2.90933 24.0466 2.424C23.8386 1.93866 23.4053 1.60933 22.7466 1.43599C22.1226 1.22799 21.1346 1.12399 19.7826 1.12399C19.6786 1.12399 19.6266 1.01999 19.6266 0.811994C19.6266 0.603995 19.6786 0.499995 19.7826 0.499995L22.2786 0.551995C23.6653 0.621327 24.8093 0.655993 25.7106 0.655993C26.3346 0.655993 26.924 0.63866 27.4786 0.603994C28.0333 0.569328 28.5186 0.534661 28.9346 0.499995C30.0093 0.395995 30.9626 0.343994 31.7946 0.343994C34.672 0.343994 36.7866 1.00266 38.1386 2.31999C39.5253 3.60266 40.2186 5.24933 40.2186 7.25999C40.2186 8.95866 39.6813 10.4493 38.6066 11.732C37.532 12.98 36.0933 13.9507 34.2906 14.644ZM30.5986 1.01999C29.628 1.01999 28.9173 1.08933 28.4666 1.228C28.016 1.36666 27.6693 1.69599 27.4266 2.21599C27.2186 2.73599 27.1146 3.60266 27.1146 4.81599V14.696L29.5586 14.748C32.2973 14.748 34.2906 14.1067 35.5386 12.824C36.7866 11.5067 37.4106 9.77333 37.4106 7.62399C37.4106 5.68266 36.856 4.10533 35.7466 2.89199C34.672 1.64399 32.956 1.01999 30.5986 1.01999ZM32.6786 32.376C35.244 32.376 37.1506 31.7173 38.3986 30.4C39.6813 29.048 40.3226 27.1413 40.3226 24.68C40.3226 22.0453 39.508 19.9133 37.8786 18.284C36.284 16.62 34.1173 15.7707 31.3786 15.736C30.096 15.7013 28.6746 15.736 27.1146 15.84V28.788C27.1146 29.724 27.2533 30.452 27.5306 30.972C27.8426 31.4573 28.3973 31.8213 29.1946 32.064C29.992 32.272 31.1533 32.376 32.6786 32.376Z" fill="#0D0B08"/>
<path d="M82.2777 0.499995C82.3817 0.499995 82.4337 0.603995 82.4337 0.811994C82.4337 1.01999 82.3817 1.12399 82.2777 1.12399C80.787 1.12399 79.7297 1.48799 79.1057 2.21599C78.5164 2.94399 78.2217 4.19199 78.2217 5.95999V33.572C78.2217 33.6413 78.135 33.6933 77.9617 33.728C77.7884 33.7627 77.667 33.7453 77.5977 33.676L54.0937 4.76399L53.2097 3.77599V27.592C53.2097 29.36 53.5044 30.608 54.0937 31.336C54.683 32.0293 55.7057 32.376 57.1617 32.376C57.2657 32.376 57.3177 32.48 57.3177 32.688C57.3177 32.896 57.2657 33 57.1617 33C56.3297 33 55.6884 32.9827 55.2377 32.948L52.7417 32.896L50.1937 32.948C49.743 32.9827 49.067 33 48.1657 33C48.0964 33 48.0617 32.896 48.0617 32.688C48.0617 32.48 48.0964 32.376 48.1657 32.376C49.6564 32.376 50.679 32.0293 51.2337 31.336C51.7884 30.6427 52.0657 29.3947 52.0657 27.592V2.684C50.8524 1.64399 49.6044 1.12399 48.3217 1.12399C48.2177 1.12399 48.1657 1.01999 48.1657 0.811994C48.1657 0.603995 48.2177 0.499995 48.3217 0.499995L50.1937 0.551995C50.575 0.586661 51.1124 0.603994 51.8057 0.603994C52.395 0.603994 52.8804 0.586661 53.2617 0.551995C53.643 0.517328 53.9377 0.499995 54.1457 0.499995C54.3884 0.499995 54.579 0.569328 54.7177 0.707993C54.891 0.811993 55.0817 1.05466 55.2897 1.43599C55.671 2.05999 56.087 2.64933 56.5377 3.20399L77.0777 28.736V5.95999C77.0777 4.19199 76.8004 2.94399 76.2457 2.21599C75.691 1.48799 74.6857 1.12399 73.2297 1.12399C73.1604 1.12399 73.1257 1.01999 73.1257 0.811994C73.1257 0.603995 73.1604 0.499995 73.2297 0.499995L75.2057 0.551995C76.2457 0.621327 77.0777 0.655993 77.7017 0.655993C78.291 0.655993 79.1404 0.621327 80.2497 0.551995L82.2777 0.499995Z" fill="#0D0B08"/>
<path d="M0 43H100V44.8H0V43Z" fill="#0D0B08"/>
<path d="M0 47H100V47.9H0V47Z" fill="#787674"/>
</svg>
