<svg width="380" height="91" viewBox="0 0 380 91" fill="none" xmlns="http://www.w3.org/2000/svg">
<path d="M43.9938 14.644C46.6978 14.8173 48.8818 15.7187 50.5458 17.348C52.2098 18.9773 53.0418 20.988 53.0418 23.38C53.0418 25.252 52.6084 26.9333 51.7418 28.424C50.8751 29.9147 49.6791 31.0933 48.1538 31.96C46.6284 32.792 44.9471 33.208 43.1098 33.208C41.9311 33.208 40.6831 33.156 39.3657 33.052C38.8804 33.0173 38.3084 32.9827 37.6497 32.948C36.9911 32.9133 36.2457 32.896 35.4137 32.896L31.9818 32.948C31.3578 32.9827 30.4911 33 29.3818 33C29.3124 33 29.2778 32.896 29.2778 32.688C29.2778 32.48 29.3124 32.376 29.3818 32.376C30.7684 32.376 31.7738 32.2893 32.3978 32.116C33.0564 31.9427 33.5071 31.6133 33.7498 31.128C33.9924 30.608 34.1138 29.828 34.1138 28.788V4.71199C34.1138 3.67199 33.9924 2.90933 33.7498 2.424C33.5418 1.93866 33.1084 1.60933 32.4497 1.43599C31.8257 1.22799 30.8378 1.12399 29.4858 1.12399C29.3818 1.12399 29.3298 1.01999 29.3298 0.811994C29.3298 0.603995 29.3818 0.499995 29.4858 0.499995L31.9818 0.551995C33.3684 0.621327 34.5124 0.655993 35.4137 0.655993C36.0377 0.655993 36.6271 0.63866 37.1818 0.603994C37.7364 0.569328 38.2218 0.534661 38.6378 0.499995C39.7124 0.395995 40.6657 0.343994 41.4977 0.343994C44.3751 0.343994 46.4898 1.00266 47.8418 2.31999C49.2284 3.60266 49.9217 5.24933 49.9217 7.25999C49.9217 8.95866 49.3844 10.4493 48.3097 11.732C47.2351 12.98 45.7964 13.9507 43.9938 14.644ZM40.3018 1.01999C39.3311 1.01999 38.6204 1.08933 38.1698 1.228C37.7191 1.36666 37.3724 1.69599 37.1297 2.21599C36.9217 2.73599 36.8177 3.60266 36.8177 4.81599V14.696L39.2617 14.748C42.0004 14.748 43.9937 14.1067 45.2417 12.824C46.4897 11.5067 47.1138 9.77333 47.1138 7.62399C47.1138 5.68266 46.5591 4.10533 45.4497 2.89199C44.3751 1.64399 42.6591 1.01999 40.3018 1.01999ZM42.3817 32.376C44.9471 32.376 46.8537 31.7173 48.1017 30.4C49.3844 29.048 50.0257 27.1413 50.0257 24.68C50.0257 22.0453 49.2111 19.9133 47.5818 18.284C45.9871 16.62 43.8204 15.7707 41.0818 15.736C39.7991 15.7013 38.3777 15.736 36.8177 15.84V28.788C36.8177 29.724 36.9564 30.452 37.2337 30.972C37.5457 31.4573 38.1004 31.8213 38.8978 32.064C39.6951 32.272 40.8564 32.376 42.3817 32.376Z" fill="white"/>
<path d="M77.0048 26.084C77.0048 25.98 77.0915 25.928 77.2648 25.928C77.4728 25.928 77.5768 25.98 77.5768 26.084C77.3341 28.58 77.2128 30.6253 77.2128 32.22C77.2128 32.4973 77.1608 32.7053 77.0568 32.844C76.9528 32.948 76.7448 33 76.4328 33H57.5048C57.4355 33 57.4008 32.896 57.4008 32.688C57.4008 32.48 57.4355 32.376 57.5048 32.376C58.6835 32.376 59.5501 32.2893 60.1048 32.116C60.6595 31.9427 61.0235 31.6133 61.1968 31.128C61.4048 30.608 61.5088 29.828 61.5088 28.788V12.876C61.5088 11.836 61.4048 11.0733 61.1968 10.588C61.0235 10.1027 60.6595 9.77333 60.1048 9.59999C59.5501 9.39199 58.6835 9.28799 57.5048 9.28799C57.4355 9.28799 57.4008 9.18399 57.4008 8.97599C57.4008 8.76799 57.4355 8.66399 57.5048 8.66399H75.4968C75.8435 8.66399 76.0168 8.80266 76.0168 9.08L76.0688 12.304C76.1035 12.9627 76.1208 13.7947 76.1208 14.8C76.1208 14.904 76.0168 14.956 75.8088 14.956C75.6008 14.956 75.4968 14.904 75.4968 14.8C75.4968 13.1707 75.0288 11.8533 74.0928 10.848C73.1568 9.84266 71.9261 9.33999 70.4008 9.33999H68.6328C67.3155 9.33999 66.3448 9.44399 65.7208 9.65199C65.1315 9.82533 64.7155 10.1547 64.4728 10.64C64.2648 11.1253 64.1608 11.888 64.1608 12.928V20.052C67.6968 20.0173 70.0888 19.9307 71.3368 19.792C72.5848 19.6533 73.2781 19.584 73.4168 19.584C73.5901 19.584 73.6768 19.948 73.6768 20.676C73.6768 21.4387 73.5901 21.82 73.4168 21.82C73.2781 21.82 72.5848 21.716 71.3368 21.508C70.0888 21.3 67.6968 21.1787 64.1608 21.144V28.58C64.1608 29.5853 64.2648 30.348 64.4728 30.868C64.7155 31.3533 65.1488 31.7 65.7728 31.908C66.3968 32.0813 67.3501 32.168 68.6328 32.168H71.6488C73.0008 32.168 74.1621 31.6133 75.1328 30.504C76.1035 29.36 76.7275 27.8867 77.0048 26.084Z" fill="white"/>
<path d="M108.666 32.376C108.805 32.376 108.874 32.48 108.874 32.688C108.874 32.896 108.805 33 108.666 33C108.042 33 107.037 32.9653 105.65 32.896C104.333 32.8267 103.362 32.792 102.738 32.792C102.253 32.792 101.559 32.8267 100.658 32.896C99.8259 32.9653 99.1846 33 98.7339 33C98.5952 33 98.5259 32.896 98.5259 32.688C98.5259 32.48 98.5952 32.376 98.7339 32.376C99.6699 32.376 100.363 32.2547 100.814 32.012C101.299 31.7693 101.542 31.3533 101.542 30.764C101.542 30.2093 101.334 29.4987 100.918 28.632L97.3299 20.832H89.6859L87.3979 26.604C86.8432 28.06 86.5659 29.1347 86.5659 29.828C86.5659 30.7293 86.8779 31.388 87.5019 31.804C88.1606 32.1853 89.1312 32.376 90.4139 32.376C90.5872 32.376 90.6739 32.48 90.6739 32.688C90.6739 32.896 90.5872 33 90.4139 33C89.8939 33 89.1832 32.9653 88.2819 32.896C87.3112 32.8267 86.4099 32.792 85.5779 32.792C84.7112 32.792 83.6886 32.8267 82.5099 32.896C81.4699 32.9653 80.6379 33 80.0139 33C79.8752 33 79.8059 32.896 79.8059 32.688C79.8059 32.48 79.8752 32.376 80.0139 32.376C81.0886 32.376 81.9379 32.2373 82.5619 31.96C83.1859 31.648 83.7579 31.0587 84.2779 30.192C84.7979 29.3253 85.4392 27.9733 86.2019 26.136L93.6379 7.88399C93.7072 7.74533 93.8112 7.67599 93.9499 7.67599C94.0886 7.67599 94.1752 7.74533 94.2099 7.88399L102.582 25.876C103.483 27.8173 104.194 29.2213 104.714 30.088C105.269 30.9547 105.823 31.5613 106.378 31.908C106.967 32.22 107.73 32.376 108.666 32.376ZM90.0499 20H96.9139L93.2219 11.992L90.0499 20Z" fill="white"/>
<path d="M114.667 9.23599C113.211 9.23599 112.102 9.40933 111.339 9.75599C110.611 10.068 110.074 10.6573 109.727 11.524C109.381 12.356 109.103 13.6213 108.895 15.32C108.895 15.3893 108.791 15.424 108.583 15.424C108.41 15.424 108.323 15.3893 108.323 15.32C108.427 14.5573 108.531 13.3093 108.635 11.576C108.774 9.80799 108.843 8.45599 108.843 7.51999C108.843 7.34666 108.947 7.25999 109.155 7.25999C109.363 7.25999 109.467 7.34666 109.467 7.51999C109.467 7.97066 109.727 8.26533 110.247 8.40399C110.767 8.50799 111.409 8.55999 112.171 8.55999C115.222 8.62933 117.839 8.66399 120.023 8.66399L124.547 8.61199C125.171 8.57733 125.986 8.55999 126.991 8.55999C128.239 8.55999 129.141 8.49066 129.695 8.35199C130.285 8.17866 130.666 7.83199 130.839 7.31199C130.909 7.20799 131.03 7.15599 131.203 7.15599C131.377 7.15599 131.463 7.20799 131.463 7.31199C131.255 11.056 131.151 13.7253 131.151 15.32C131.151 15.3893 131.047 15.424 130.839 15.424C130.666 15.424 130.579 15.3893 130.579 15.32C130.579 13.5867 130.441 12.304 130.163 11.472C129.921 10.64 129.435 10.068 128.707 9.75599C128.014 9.40933 126.922 9.23599 125.431 9.23599C124.287 9.23599 123.421 9.33999 122.831 9.54799C122.242 9.75599 121.826 10.12 121.583 10.64C121.375 11.1253 121.271 11.8707 121.271 12.876V28.788C121.271 29.8627 121.375 30.6427 121.583 31.128C121.791 31.6133 122.207 31.9427 122.831 32.116C123.49 32.2893 124.513 32.376 125.899 32.376C125.969 32.376 126.003 32.48 126.003 32.688C126.003 32.896 125.969 33 125.899 33C124.825 33 123.993 32.9827 123.403 32.948L119.867 32.896L116.487 32.948C115.863 32.9827 114.997 33 113.887 33C113.818 33 113.783 32.896 113.783 32.688C113.783 32.48 113.818 32.376 113.887 32.376C115.239 32.376 116.227 32.2893 116.851 32.116C117.51 31.9427 117.961 31.6133 118.203 31.128C118.446 30.608 118.567 29.828 118.567 28.788V12.772C118.567 11.732 118.481 10.9693 118.307 10.484C118.134 9.99866 117.77 9.66933 117.215 9.49599C116.695 9.32266 115.846 9.23599 114.667 9.23599Z" fill="white"/>
<path d="M160.694 32.376C160.763 32.376 160.798 32.48 160.798 32.688C160.798 32.896 160.763 33 160.694 33H155.234C154.61 33 153.466 31.96 151.802 29.88C150.138 27.8 148.144 24.9227 145.822 21.248C144.92 21.3867 144.192 21.456 143.638 21.456C143.152 21.456 142.39 21.4213 141.35 21.352V28.788C141.35 29.8627 141.436 30.6427 141.61 31.128C141.818 31.6133 142.182 31.9427 142.702 32.116C143.256 32.2893 144.14 32.376 145.354 32.376C145.458 32.376 145.51 32.48 145.51 32.688C145.51 32.896 145.458 33 145.354 33C144.418 33 143.69 32.9827 143.17 32.948L139.998 32.896L136.982 32.948C136.427 32.9827 135.647 33 134.642 33C134.572 33 134.538 32.896 134.538 32.688C134.538 32.48 134.572 32.376 134.642 32.376C135.855 32.376 136.739 32.2893 137.294 32.116C137.848 31.9427 138.23 31.6133 138.438 31.128C138.646 30.608 138.75 29.828 138.75 28.788V12.876C138.75 11.836 138.646 11.0733 138.438 10.588C138.23 10.1027 137.848 9.77333 137.294 9.59999C136.739 9.39199 135.872 9.28799 134.694 9.28799C134.624 9.28799 134.59 9.18399 134.59 8.97599C134.59 8.76799 134.624 8.66399 134.694 8.66399L137.034 8.71599C138.282 8.78533 139.27 8.81999 139.998 8.81999C140.656 8.81999 141.246 8.80266 141.766 8.76799C142.286 8.73333 142.719 8.69866 143.066 8.66399C144.14 8.55999 145.146 8.50799 146.082 8.50799C148.196 8.50799 149.808 8.94133 150.918 9.80799C152.062 10.6747 152.634 11.9227 152.634 13.552C152.634 14.9733 152.235 16.2733 151.438 17.452C150.675 18.6307 149.635 19.584 148.318 20.312C150.294 23.5013 151.94 25.9453 153.258 27.644C154.61 29.3427 155.858 30.556 157.002 31.284C158.146 32.012 159.376 32.376 160.694 32.376ZM141.35 20.364C142.008 20.5027 142.892 20.572 144.002 20.572C146.186 20.572 147.711 20.104 148.578 19.168C149.444 18.1973 149.878 16.7933 149.878 14.956C149.878 11.108 148.144 9.18399 144.678 9.18399C143.291 9.18399 142.39 9.47866 141.974 10.068C141.558 10.6573 141.35 11.628 141.35 12.98V20.364Z" fill="white"/>
<path d="M169.288 28.788C169.288 29.8627 169.374 30.6427 169.548 31.128C169.756 31.6133 170.12 31.9427 170.64 32.116C171.194 32.2893 172.078 32.376 173.292 32.376C173.396 32.376 173.448 32.48 173.448 32.688C173.448 32.896 173.396 33 173.292 33C172.356 33 171.628 32.9827 171.108 32.948L167.884 32.896L164.816 32.948C164.261 32.9827 163.498 33 162.528 33C162.458 33 162.424 32.896 162.424 32.688C162.424 32.48 162.458 32.376 162.528 32.376C163.741 32.376 164.625 32.2893 165.18 32.116C165.734 31.9427 166.098 31.6133 166.272 31.128C166.48 30.608 166.584 29.828 166.584 28.788V12.876C166.584 11.836 166.48 11.0733 166.272 10.588C166.098 10.1027 165.717 9.77333 165.128 9.59999C164.573 9.39199 163.706 9.28799 162.528 9.28799C162.458 9.28799 162.424 9.18399 162.424 8.97599C162.424 8.76799 162.458 8.66399 162.528 8.66399L164.816 8.71599C166.133 8.78533 167.156 8.81999 167.884 8.81999C168.75 8.81999 169.842 8.78533 171.16 8.71599L173.292 8.66399C173.396 8.66399 173.448 8.76799 173.448 8.97599C173.448 9.18399 173.396 9.28799 173.292 9.28799C172.148 9.28799 171.298 9.39199 170.744 9.59999C170.189 9.80799 169.808 10.172 169.6 10.692C169.392 11.1773 169.288 11.94 169.288 12.98V28.788Z" fill="white"/>
<path d="M192.637 9.80799L192.793 9.49599C192.793 9.42666 192.654 9.39199 192.377 9.39199C187.801 9.39199 184.767 9.47866 183.277 9.65199C181.786 9.79066 180.781 10.1547 180.261 10.744C179.741 11.2987 179.134 12.5293 178.441 14.436C178.441 14.5053 178.371 14.54 178.233 14.54C178.129 14.54 178.025 14.5227 177.921 14.488C177.851 14.4187 177.834 14.3667 177.869 14.332L179.689 7.10399C179.689 7.03466 179.758 7 179.897 7C180.001 7 180.087 7.03466 180.157 7.10399C180.261 7.13866 180.295 7.17333 180.261 7.20799C180.191 7.79733 180.33 8.19599 180.677 8.40399C181.058 8.57733 181.925 8.66399 183.277 8.66399H195.653C195.826 8.66399 195.947 8.75066 196.017 8.92399C196.121 9.06266 196.121 9.20133 196.017 9.33999L181.093 31.7C180.954 31.8733 180.902 31.9947 180.937 32.064C180.971 32.1333 181.093 32.168 181.301 32.168H189.205C191.077 32.168 192.463 32.0467 193.365 31.804C194.301 31.5267 194.994 31.024 195.445 30.296C195.93 29.568 196.329 28.424 196.641 26.864C196.675 26.76 196.779 26.708 196.953 26.708C197.161 26.708 197.265 26.76 197.265 26.864L196.693 32.584C196.693 32.688 196.641 32.8093 196.537 32.948C196.467 33.052 196.363 33.104 196.225 33.104L177.869 33C177.695 33 177.574 32.9307 177.505 32.792C177.435 32.6187 177.453 32.4627 177.557 32.324L192.637 9.80799Z" fill="white"/>
<path d="M247.575 0.499995C247.679 0.499995 247.731 0.603995 247.731 0.811994C247.731 1.01999 247.679 1.12399 247.575 1.12399C246.084 1.12399 245.027 1.48799 244.403 2.21599C243.813 2.94399 243.519 4.19199 243.519 5.95999V33.572C243.519 33.6413 243.432 33.6933 243.259 33.728C243.085 33.7627 242.964 33.7453 242.895 33.676L219.391 4.76399L218.507 3.77599V27.592C218.507 29.36 218.801 30.608 219.391 31.336C219.98 32.0293 221.003 32.376 222.459 32.376C222.563 32.376 222.615 32.48 222.615 32.688C222.615 32.896 222.563 33 222.459 33C221.627 33 220.985 32.9827 220.535 32.948L218.039 32.896L215.491 32.948C215.04 32.9827 214.364 33 213.463 33C213.393 33 213.359 32.896 213.359 32.688C213.359 32.48 213.393 32.376 213.463 32.376C214.953 32.376 215.976 32.0293 216.531 31.336C217.085 30.6427 217.363 29.3947 217.363 27.592V2.684C216.149 1.64399 214.901 1.12399 213.619 1.12399C213.515 1.12399 213.463 1.01999 213.463 0.811994C213.463 0.603995 213.515 0.499995 213.619 0.499995L215.491 0.551995C215.872 0.586661 216.409 0.603994 217.103 0.603994C217.692 0.603994 218.177 0.586661 218.559 0.551995C218.94 0.517328 219.235 0.499995 219.443 0.499995C219.685 0.499995 219.876 0.569328 220.015 0.707993C220.188 0.811993 220.379 1.05466 220.587 1.43599C220.968 2.05999 221.384 2.64933 221.835 3.20399L242.375 28.736V5.95999C242.375 4.19199 242.097 2.94399 241.543 2.21599C240.988 1.48799 239.983 1.12399 238.527 1.12399C238.457 1.12399 238.423 1.01999 238.423 0.811994C238.423 0.603995 238.457 0.499995 238.527 0.499995L240.503 0.551995C241.543 0.621327 242.375 0.655993 242.999 0.655993C243.588 0.655993 244.437 0.621327 245.547 0.551995L247.575 0.499995Z" fill="white"/>
<path d="M273.658 13.5C273.658 12.356 273.537 11.4893 273.294 10.9C273.086 10.3107 272.705 9.89466 272.15 9.65199C271.596 9.40933 270.781 9.28799 269.706 9.28799C269.602 9.28799 269.55 9.18399 269.55 8.97599C269.55 8.76799 269.602 8.66399 269.706 8.66399L271.682 8.71599C272.722 8.78533 273.537 8.81999 274.126 8.81999C274.612 8.81999 275.34 8.78533 276.31 8.71599L278.182 8.66399C278.252 8.66399 278.286 8.76799 278.286 8.97599C278.286 9.18399 278.252 9.28799 278.182 9.28799C277.212 9.28799 276.484 9.40933 275.998 9.65199C275.513 9.89466 275.166 10.3107 274.958 10.9C274.785 11.4893 274.698 12.356 274.698 13.5V23.432C274.698 26.656 273.78 29.1693 271.942 30.972C270.14 32.7747 267.713 33.676 264.662 33.676C262.721 33.676 260.953 33.2947 259.358 32.532C257.798 31.7347 256.55 30.608 255.614 29.152C254.713 27.696 254.262 25.9627 254.262 23.952V12.876C254.262 11.836 254.158 11.0733 253.95 10.588C253.742 10.1027 253.361 9.77333 252.806 9.59999C252.286 9.39199 251.437 9.28799 250.258 9.28799C250.154 9.28799 250.102 9.18399 250.102 8.97599C250.102 8.76799 250.154 8.66399 250.258 8.66399L252.546 8.71599C253.794 8.78533 254.765 8.81999 255.458 8.81999C256.325 8.81999 257.382 8.78533 258.63 8.71599L260.814 8.66399C260.918 8.66399 260.97 8.76799 260.97 8.97599C260.97 9.18399 260.918 9.28799 260.814 9.28799C259.67 9.28799 258.821 9.39199 258.266 9.59999C257.712 9.80799 257.33 10.172 257.122 10.692C256.914 11.1773 256.81 11.94 256.81 12.98V22.6C256.81 25.8587 257.66 28.268 259.358 29.828C261.057 31.388 263.206 32.168 265.806 32.168C268.268 32.168 270.192 31.44 271.578 29.984C272.965 28.4933 273.658 26.344 273.658 23.536V13.5Z" fill="white"/>
<path d="M306.994 8.66399C307.064 8.66399 307.098 8.76799 307.098 8.97599C307.098 9.18399 307.064 9.28799 306.994 9.28799C305.712 9.28799 304.81 9.65199 304.29 10.38C303.77 11.0733 303.51 12.304 303.51 14.072V33.572C303.51 33.6413 303.424 33.6933 303.25 33.728C303.077 33.7627 302.956 33.7453 302.886 33.676L286.142 12.928L285.258 11.888V27.592C285.258 29.36 285.501 30.608 285.986 31.336C286.506 32.0293 287.39 32.376 288.638 32.376C288.708 32.376 288.742 32.48 288.742 32.688C288.742 32.896 288.708 33 288.638 33C287.876 33 287.304 32.9827 286.922 32.948L284.79 32.896L282.606 32.948C282.19 32.9827 281.601 33 280.838 33C280.734 33 280.682 32.896 280.682 32.688C280.682 32.48 280.734 32.376 280.838 32.376C282.121 32.376 283.005 32.0293 283.49 31.336C283.976 30.608 284.218 29.36 284.218 27.592V10.848C283.074 9.80799 281.982 9.28799 280.942 9.28799C280.873 9.28799 280.838 9.18399 280.838 8.97599C280.838 8.76799 280.873 8.66399 280.942 8.66399L283.854 8.71599L286.09 8.66399C286.368 8.66399 286.558 8.73333 286.662 8.87199C286.801 8.97599 286.992 9.23599 287.234 9.65199C287.616 10.276 288.014 10.848 288.43 11.368L302.47 28.996V14.072C302.47 12.304 302.228 11.0733 301.742 10.38C301.257 9.65199 300.39 9.28799 299.142 9.28799C299.038 9.28799 298.986 9.18399 298.986 8.97599C298.986 8.76799 299.038 8.66399 299.142 8.66399L300.858 8.71599C301.69 8.78533 302.401 8.81999 302.99 8.81999C303.545 8.81999 304.273 8.78533 305.174 8.71599L306.994 8.66399Z" fill="white"/>
<path d="M330.149 26.084C330.149 25.98 330.236 25.928 330.409 25.928C330.617 25.928 330.721 25.98 330.721 26.084C330.479 28.58 330.357 30.6253 330.357 32.22C330.357 32.4973 330.305 32.7053 330.201 32.844C330.097 32.948 329.889 33 329.577 33H310.649C310.58 33 310.545 32.896 310.545 32.688C310.545 32.48 310.58 32.376 310.649 32.376C311.828 32.376 312.695 32.2893 313.249 32.116C313.804 31.9427 314.168 31.6133 314.341 31.128C314.549 30.608 314.653 29.828 314.653 28.788V12.876C314.653 11.836 314.549 11.0733 314.341 10.588C314.168 10.1027 313.804 9.77333 313.249 9.59999C312.695 9.39199 311.828 9.28799 310.649 9.28799C310.58 9.28799 310.545 9.18399 310.545 8.97599C310.545 8.76799 310.58 8.66399 310.649 8.66399H328.641C328.988 8.66399 329.161 8.80266 329.161 9.08L329.213 12.304C329.248 12.9627 329.265 13.7947 329.265 14.8C329.265 14.904 329.161 14.956 328.953 14.956C328.745 14.956 328.641 14.904 328.641 14.8C328.641 13.1707 328.173 11.8533 327.237 10.848C326.301 9.84266 325.071 9.33999 323.545 9.33999H321.777C320.46 9.33999 319.489 9.44399 318.865 9.65199C318.276 9.82533 317.86 10.1547 317.617 10.64C317.409 11.1253 317.305 11.888 317.305 12.928V20.052C320.841 20.0173 323.233 19.9307 324.481 19.792C325.729 19.6533 326.423 19.584 326.561 19.584C326.735 19.584 326.821 19.948 326.821 20.676C326.821 21.4387 326.735 21.82 326.561 21.82C326.423 21.82 325.729 21.716 324.481 21.508C323.233 21.3 320.841 21.1787 317.305 21.144V28.58C317.305 29.5853 317.409 30.348 317.617 30.868C317.86 31.3533 318.293 31.7 318.917 31.908C319.541 32.0813 320.495 32.168 321.777 32.168H324.793C326.145 32.168 327.307 31.6133 328.277 30.504C329.248 29.36 329.872 27.8867 330.149 26.084Z" fill="white"/>
<path d="M338.67 12.98C338.67 14.0547 338.93 14.9907 339.45 15.788C340.005 16.5507 340.681 17.192 341.478 17.712C342.276 18.232 343.35 18.856 344.702 19.584C346.089 20.2773 347.198 20.9187 348.03 21.508C348.862 22.0973 349.573 22.8253 350.162 23.692C350.752 24.524 351.046 25.5467 351.046 26.76C351.046 28.7013 350.266 30.3307 348.706 31.648C347.181 32.9653 345.101 33.624 342.466 33.624C340.282 33.624 338.324 33.0347 336.59 31.856C336.417 31.752 336.296 31.6307 336.226 31.492C336.192 31.3533 336.157 31.1453 336.122 30.868L335.498 25.928C335.464 25.7893 335.55 25.7027 335.758 25.668C335.966 25.6333 336.088 25.6853 336.122 25.824C336.504 27.8347 337.405 29.516 338.826 30.868C340.248 32.22 341.842 32.896 343.61 32.896C344.858 32.896 345.95 32.532 346.886 31.804C347.822 31.076 348.29 29.932 348.29 28.372C348.29 27.228 348.013 26.24 347.458 25.408C346.904 24.576 346.228 23.8827 345.43 23.328C344.633 22.7387 343.576 22.0973 342.258 21.404C340.872 20.6413 339.78 19.9827 338.982 19.428C338.185 18.8387 337.509 18.128 336.954 17.296C336.4 16.464 336.122 15.4587 336.122 14.28C336.122 12.304 336.85 10.7787 338.306 9.70399C339.762 8.59466 341.548 8.03999 343.662 8.03999C345.222 8.03999 346.852 8.43866 348.55 9.23599C348.862 9.40933 349.053 9.54799 349.122 9.65199C349.226 9.72133 349.296 9.85999 349.33 10.068L349.746 14.488C349.746 14.6267 349.642 14.7133 349.434 14.748C349.261 14.7827 349.157 14.7307 349.122 14.592C348.88 13.0667 348.152 11.7147 346.938 10.536C345.725 9.32266 344.321 8.71599 342.726 8.71599C341.444 8.71599 340.438 9.11466 339.71 9.91199C339.017 10.7093 338.67 11.732 338.67 12.98Z" fill="white"/>
<path d="M51.3571 68.96C52.4131 68.96 53.3331 69.144 54.1171 69.512C54.9171 69.864 55.5331 70.4 55.9651 71.12C56.4131 71.824 56.6371 72.712 56.6371 73.784C56.6371 74.424 56.5331 75.048 56.3251 75.656C56.1331 76.248 55.8131 76.784 55.3651 77.264C54.9331 77.744 54.3731 78.128 53.6851 78.416C53.0131 78.704 52.1971 78.848 51.2371 78.848H48.5971V86H47.4211V68.96H51.3571ZM51.2371 77.72C52.0691 77.72 52.7571 77.592 53.3011 77.336C53.8611 77.064 54.2931 76.728 54.5971 76.328C54.9171 75.912 55.1411 75.48 55.2691 75.032C55.4131 74.584 55.4851 74.168 55.4851 73.784C55.4851 73.24 55.3971 72.744 55.2211 72.296C55.0451 71.848 54.7811 71.464 54.4291 71.144C54.0931 70.808 53.6771 70.552 53.1811 70.376C52.6851 70.184 52.1171 70.088 51.4771 70.088H48.5971V77.72H51.2371Z" fill="white"/>
<path d="M64.2621 86.192C63.7181 86.192 63.1501 86.096 62.5581 85.904C61.9661 85.696 61.4861 85.368 61.1181 84.92L61.6461 84.176C61.9661 84.512 62.3421 84.784 62.7741 84.992C63.2221 85.184 63.6941 85.28 64.1901 85.28C64.5581 85.28 64.9021 85.232 65.2221 85.136C65.5581 85.024 65.8301 84.84 66.0381 84.584C66.2461 84.328 66.3501 83.984 66.3501 83.552C66.3501 83.104 66.2221 82.76 65.9661 82.52C65.7261 82.28 65.4141 82.088 65.0301 81.944C64.6621 81.784 64.2701 81.64 63.8541 81.512C63.1661 81.288 62.5981 80.984 62.1501 80.6C61.7181 80.216 61.5021 79.672 61.5021 78.968C61.5021 78.456 61.6221 78.008 61.8621 77.624C62.1181 77.24 62.4621 76.944 62.8941 76.736C63.3261 76.512 63.8141 76.4 64.3581 76.4C64.8541 76.4 65.3421 76.48 65.8221 76.64C66.3181 76.8 66.7661 77.072 67.1661 77.456L66.6621 78.248C66.4061 77.896 66.0621 77.656 65.6301 77.528C65.2141 77.4 64.8461 77.328 64.5261 77.312C64.2541 77.312 63.9661 77.368 63.6621 77.48C63.3741 77.592 63.1261 77.76 62.9181 77.984C62.7261 78.192 62.6301 78.472 62.6301 78.824C62.6301 79.192 62.7341 79.496 62.9421 79.736C63.1501 79.96 63.4141 80.144 63.7341 80.288C64.0701 80.432 64.4141 80.568 64.7661 80.696C65.2301 80.84 65.6621 81.016 66.0621 81.224C66.4781 81.416 66.8141 81.68 67.0701 82.016C67.3421 82.336 67.4781 82.768 67.4781 83.312C67.4781 83.856 67.3581 84.352 67.1181 84.8C66.8781 85.232 66.5181 85.576 66.0381 85.832C65.5741 86.072 64.9821 86.192 64.2621 86.192Z" fill="white"/>
<path d="M72.8101 76.616H73.9381V86H72.8101V76.616ZM72.5701 73.16C72.5701 72.936 72.6581 72.752 72.8341 72.608C73.0101 72.448 73.2021 72.368 73.4101 72.368C73.6341 72.368 73.8261 72.448 73.9861 72.608C74.1461 72.752 74.2261 72.936 74.2261 73.16C74.2261 73.4 74.1461 73.6 73.9861 73.76C73.8261 73.904 73.6341 73.976 73.4101 73.976C73.2021 73.976 73.0101 73.896 72.8341 73.736C72.6581 73.576 72.5701 73.384 72.5701 73.16Z" fill="white"/>
<path d="M87.3687 85.088C86.9367 85.44 86.4487 85.712 85.9047 85.904C85.3607 86.096 84.7927 86.192 84.2007 86.192C83.2407 86.192 82.3847 85.984 81.6327 85.568C80.8807 85.136 80.2887 84.552 79.8567 83.816C79.4247 83.08 79.2087 82.24 79.2087 81.296C79.2087 80.352 79.4327 79.512 79.8807 78.776C80.3287 78.04 80.9207 77.464 81.6567 77.048C82.4087 76.616 83.2247 76.4 84.1047 76.4C84.7607 76.4 85.3687 76.496 85.9287 76.688C86.4887 76.88 86.9767 77.152 87.3927 77.504L86.7927 78.272C86.4567 78 86.0647 77.776 85.6167 77.6C85.1687 77.424 84.6887 77.336 84.1767 77.336C83.4727 77.336 82.8247 77.512 82.2327 77.864C81.6567 78.216 81.1927 78.696 80.8407 79.304C80.5047 79.896 80.3367 80.56 80.3367 81.296C80.3367 82.016 80.5047 82.68 80.8407 83.288C81.1927 83.88 81.6647 84.352 82.2567 84.704C82.8647 85.056 83.5367 85.232 84.2727 85.232C84.7527 85.232 85.2007 85.16 85.6167 85.016C86.0327 84.856 86.4087 84.648 86.7447 84.392L87.3687 85.088Z" fill="white"/>
<path d="M91.5115 81.248C91.5115 80.336 91.7275 79.504 92.1595 78.752C92.6075 78 93.2075 77.408 93.9595 76.976C94.7275 76.528 95.5835 76.304 96.5275 76.304C97.4875 76.304 98.3435 76.528 99.0955 76.976C99.8475 77.408 100.439 78 100.871 78.752C101.303 79.504 101.52 80.336 101.52 81.248C101.52 82.16 101.303 82.992 100.871 83.744C100.439 84.496 99.8395 85.096 99.0715 85.544C98.3195 85.976 97.4715 86.192 96.5275 86.192C95.5675 86.192 94.7115 85.984 93.9595 85.568C93.2075 85.136 92.6075 84.552 92.1595 83.816C91.7275 83.064 91.5115 82.208 91.5115 81.248ZM92.6395 81.272C92.6395 82.008 92.8075 82.68 93.1435 83.288C93.4955 83.88 93.9595 84.352 94.5355 84.704C95.1275 85.056 95.7835 85.232 96.5035 85.232C97.2235 85.232 97.8715 85.056 98.4475 84.704C99.0395 84.352 99.5035 83.88 99.8395 83.288C100.192 82.68 100.368 82.008 100.368 81.272C100.368 80.536 100.192 79.872 99.8395 79.28C99.5035 78.672 99.0395 78.192 98.4475 77.84C97.8715 77.472 97.2235 77.288 96.5035 77.288C95.7675 77.288 95.1035 77.48 94.5115 77.864C93.9355 78.232 93.4795 78.72 93.1435 79.328C92.8075 79.936 92.6395 80.584 92.6395 81.272ZM98.4715 71.456L95.9275 74.648H95.1115L97.1995 71.456H98.4715Z" fill="white"/>
<path d="M106.789 67.76H107.917V86H106.789V67.76Z" fill="white"/>
<path d="M113.187 81.248C113.187 80.336 113.403 79.504 113.835 78.752C114.283 78 114.883 77.408 115.635 76.976C116.403 76.528 117.259 76.304 118.203 76.304C119.163 76.304 120.019 76.528 120.771 76.976C121.523 77.408 122.115 78 122.547 78.752C122.979 79.504 123.195 80.336 123.195 81.248C123.195 82.16 122.979 82.992 122.547 83.744C122.115 84.496 121.515 85.096 120.747 85.544C119.995 85.976 119.147 86.192 118.203 86.192C117.243 86.192 116.387 85.984 115.635 85.568C114.883 85.136 114.283 84.552 113.835 83.816C113.403 83.064 113.187 82.208 113.187 81.248ZM114.315 81.272C114.315 82.008 114.483 82.68 114.819 83.288C115.171 83.88 115.635 84.352 116.211 84.704C116.803 85.056 117.459 85.232 118.179 85.232C118.899 85.232 119.547 85.056 120.123 84.704C120.715 84.352 121.179 83.88 121.515 83.288C121.867 82.68 122.043 82.008 122.043 81.272C122.043 80.536 121.867 79.872 121.515 79.28C121.179 78.672 120.715 78.192 120.123 77.84C119.547 77.472 118.899 77.288 118.179 77.288C117.443 77.288 116.779 77.48 116.187 77.864C115.611 78.232 115.155 78.72 114.819 79.328C114.483 79.936 114.315 80.584 114.315 81.272Z" fill="white"/>
<path d="M132.641 90.584C132.113 90.584 131.609 90.52 131.129 90.392C130.649 90.28 130.177 90.08 129.713 89.792C129.249 89.504 128.769 89.128 128.273 88.664L128.945 87.896C129.633 88.552 130.273 88.992 130.865 89.216C131.457 89.456 132.033 89.576 132.593 89.576C133.569 89.576 134.345 89.416 134.921 89.096C135.497 88.792 135.913 88.376 136.169 87.848C136.425 87.336 136.561 86.76 136.577 86.12L136.601 83.072L136.865 83.36C136.545 84.192 135.969 84.872 135.137 85.4C134.321 85.928 133.393 86.192 132.353 86.192C131.473 86.192 130.665 85.976 129.929 85.544C129.209 85.096 128.633 84.504 128.201 83.768C127.769 83.016 127.553 82.184 127.553 81.272C127.553 80.296 127.777 79.44 128.225 78.704C128.673 77.968 129.281 77.392 130.049 76.976C130.817 76.544 131.665 76.328 132.593 76.328C133.457 76.328 134.273 76.552 135.041 77C135.825 77.448 136.393 78.04 136.745 78.776L136.601 79.304L136.721 76.616H137.729V86.144C137.729 86.912 137.553 87.632 137.201 88.304C136.865 88.992 136.321 89.544 135.569 89.96C134.833 90.376 133.857 90.584 132.641 90.584ZM128.681 81.248C128.681 81.984 128.857 82.656 129.209 83.264C129.561 83.856 130.033 84.336 130.625 84.704C131.233 85.056 131.905 85.232 132.641 85.232C133.345 85.232 133.985 85.08 134.561 84.776C135.137 84.456 135.609 84.032 135.977 83.504C136.345 82.976 136.553 82.408 136.601 81.8V80.408C136.473 79.8 136.217 79.264 135.833 78.8C135.465 78.336 135.001 77.968 134.441 77.696C133.897 77.424 133.297 77.288 132.641 77.288C131.905 77.288 131.233 77.456 130.625 77.792C130.033 78.128 129.561 78.592 129.209 79.184C128.857 79.776 128.681 80.464 128.681 81.248Z" fill="white"/>
<path d="M147.82 86.192C146.924 86.192 146.108 85.992 145.372 85.592C144.652 85.176 144.076 84.6 143.644 83.864C143.228 83.128 143.02 82.272 143.02 81.296C143.02 80.256 143.244 79.368 143.692 78.632C144.14 77.88 144.748 77.312 145.516 76.928C146.284 76.528 147.156 76.328 148.132 76.328C148.964 76.328 149.748 76.576 150.484 77.072C151.236 77.568 151.772 78.192 152.092 78.944L151.924 79.28L152.068 76.616H153.076V86H151.948V83.096L152.188 83.528C152.076 83.848 151.884 84.168 151.612 84.488C151.34 84.792 151.004 85.08 150.604 85.352C150.22 85.608 149.788 85.816 149.308 85.976C148.844 86.12 148.348 86.192 147.82 86.192ZM148.06 85.232C148.764 85.232 149.396 85.088 149.956 84.8C150.532 84.496 150.996 84.08 151.348 83.552C151.7 83.024 151.9 82.416 151.948 81.728V80.384C151.82 79.792 151.564 79.264 151.18 78.8C150.812 78.336 150.356 77.968 149.812 77.696C149.268 77.424 148.676 77.288 148.036 77.288C147.332 77.288 146.684 77.456 146.092 77.792C145.5 78.112 145.028 78.568 144.676 79.16C144.324 79.752 144.148 80.448 144.148 81.248C144.148 81.984 144.324 82.656 144.676 83.264C145.028 83.856 145.5 84.336 146.092 84.704C146.7 85.056 147.356 85.232 148.06 85.232Z" fill="white"/>
<path d="M181.353 84.872C180.985 85.096 180.561 85.312 180.081 85.52C179.601 85.728 179.073 85.888 178.497 86C177.921 86.128 177.297 86.192 176.625 86.192C175.329 86.192 174.153 85.968 173.097 85.52C172.041 85.056 171.137 84.432 170.385 83.648C169.633 82.848 169.049 81.936 168.633 80.912C168.233 79.872 168.033 78.768 168.033 77.6C168.033 76.352 168.249 75.192 168.681 74.12C169.113 73.048 169.721 72.112 170.505 71.312C171.289 70.512 172.201 69.888 173.241 69.44C174.281 68.992 175.409 68.768 176.625 68.768C177.521 68.768 178.361 68.888 179.145 69.128C179.929 69.368 180.641 69.68 181.281 70.064L180.777 71.144C180.217 70.792 179.585 70.496 178.881 70.256C178.177 70.016 177.433 69.896 176.649 69.896C175.641 69.896 174.689 70.096 173.793 70.496C172.897 70.88 172.105 71.424 171.417 72.128C170.745 72.816 170.217 73.624 169.833 74.552C169.449 75.48 169.257 76.48 169.257 77.552C169.257 78.576 169.425 79.544 169.761 80.456C170.113 81.368 170.609 82.168 171.249 82.856C171.905 83.544 172.689 84.088 173.601 84.488C174.513 84.872 175.529 85.064 176.649 85.064C177.481 85.064 178.241 84.952 178.929 84.728C179.633 84.488 180.257 84.192 180.801 83.84L181.353 84.872Z" fill="white"/>
<path d="M187.051 67.76H188.179V86H187.051V67.76Z" fill="white"/>
<path d="M194.362 76.616H195.49V86H194.362V76.616ZM196.882 71.6L194.338 74.792H193.522L195.61 71.6H196.882Z" fill="white"/>
<path d="M202.656 76.616L202.776 79.568L202.632 78.992C202.904 78.176 203.416 77.536 204.168 77.072C204.936 76.592 205.784 76.352 206.712 76.352C207.592 76.352 208.304 76.616 208.848 77.144C209.392 77.656 209.672 78.328 209.688 79.16V86H208.536V79.472C208.52 78.864 208.328 78.36 207.96 77.96C207.592 77.56 207.056 77.352 206.352 77.336C205.728 77.336 205.144 77.488 204.6 77.792C204.056 78.096 203.616 78.52 203.28 79.064C202.96 79.608 202.8 80.24 202.8 80.96V86H201.672V76.616H202.656Z" fill="white"/>
<path d="M215.874 76.616H217.002V86H215.874V76.616ZM215.633 73.16C215.633 72.936 215.722 72.752 215.898 72.608C216.074 72.448 216.266 72.368 216.474 72.368C216.698 72.368 216.889 72.448 217.049 72.608C217.209 72.752 217.29 72.936 217.29 73.16C217.29 73.4 217.209 73.6 217.049 73.76C216.889 73.904 216.698 73.976 216.474 73.976C216.266 73.976 216.074 73.896 215.898 73.736C215.722 73.576 215.633 73.384 215.633 73.16Z" fill="white"/>
<path d="M230.432 85.088C230 85.44 229.512 85.712 228.968 85.904C228.424 86.096 227.856 86.192 227.264 86.192C226.304 86.192 225.448 85.984 224.696 85.568C223.944 85.136 223.352 84.552 222.92 83.816C222.488 83.08 222.272 82.24 222.272 81.296C222.272 80.352 222.496 79.512 222.944 78.776C223.392 78.04 223.984 77.464 224.72 77.048C225.472 76.616 226.288 76.4 227.168 76.4C227.824 76.4 228.432 76.496 228.992 76.688C229.552 76.88 230.04 77.152 230.456 77.504L229.856 78.272C229.52 78 229.128 77.776 228.68 77.6C228.232 77.424 227.752 77.336 227.24 77.336C226.536 77.336 225.888 77.512 225.296 77.864C224.72 78.216 224.256 78.696 223.904 79.304C223.568 79.896 223.4 80.56 223.4 81.296C223.4 82.016 223.568 82.68 223.904 83.288C224.256 83.88 224.728 84.352 225.32 84.704C225.928 85.056 226.6 85.232 227.336 85.232C227.816 85.232 228.264 85.16 228.68 85.016C229.096 84.856 229.472 84.648 229.808 84.392L230.432 85.088Z" fill="white"/>
<path d="M239.375 86.192C238.479 86.192 237.663 85.992 236.927 85.592C236.207 85.176 235.631 84.6 235.199 83.864C234.783 83.128 234.575 82.272 234.575 81.296C234.575 80.256 234.799 79.368 235.247 78.632C235.695 77.88 236.303 77.312 237.071 76.928C237.839 76.528 238.711 76.328 239.687 76.328C240.519 76.328 241.303 76.576 242.039 77.072C242.791 77.568 243.327 78.192 243.647 78.944L243.479 79.28L243.623 76.616H244.631V86H243.503V83.096L243.743 83.528C243.631 83.848 243.439 84.168 243.167 84.488C242.895 84.792 242.559 85.08 242.159 85.352C241.775 85.608 241.343 85.816 240.863 85.976C240.399 86.12 239.903 86.192 239.375 86.192ZM239.615 85.232C240.319 85.232 240.951 85.088 241.511 84.8C242.087 84.496 242.551 84.08 242.903 83.552C243.255 83.024 243.455 82.416 243.503 81.728V80.384C243.375 79.792 243.119 79.264 242.735 78.8C242.367 78.336 241.911 77.968 241.367 77.696C240.823 77.424 240.231 77.288 239.591 77.288C238.887 77.288 238.239 77.456 237.647 77.792C237.055 78.112 236.583 78.568 236.231 79.16C235.879 79.752 235.703 80.448 235.703 81.248C235.703 81.984 235.879 82.656 236.231 83.264C236.583 83.856 237.055 84.336 237.647 84.704C238.255 85.056 238.911 85.232 239.615 85.232Z" fill="white"/>
<path d="M259.589 77.504C259.589 76.304 259.813 75.184 260.261 74.144C260.709 73.088 261.333 72.16 262.133 71.36C262.933 70.544 263.853 69.912 264.893 69.464C265.949 69 267.077 68.768 268.277 68.768C269.477 68.768 270.605 69 271.661 69.464C272.717 69.912 273.645 70.544 274.445 71.36C275.245 72.16 275.869 73.088 276.317 74.144C276.781 75.184 277.013 76.304 277.013 77.504C277.013 78.704 276.781 79.832 276.317 80.888C275.869 81.928 275.245 82.848 274.445 83.648C273.645 84.448 272.717 85.072 271.661 85.52C270.605 85.968 269.477 86.192 268.277 86.192C267.077 86.192 265.949 85.976 264.893 85.544C263.853 85.112 262.933 84.504 262.133 83.72C261.333 82.936 260.709 82.016 260.261 80.96C259.813 79.904 259.589 78.752 259.589 77.504ZM260.789 77.528C260.789 78.568 260.981 79.544 261.365 80.456C261.749 81.368 262.285 82.168 262.973 82.856C263.661 83.544 264.453 84.088 265.349 84.488C266.261 84.872 267.229 85.064 268.253 85.064C269.309 85.064 270.293 84.872 271.205 84.488C272.117 84.088 272.917 83.544 273.605 82.856C274.293 82.168 274.829 81.368 275.213 80.456C275.613 79.544 275.813 78.56 275.813 77.504C275.813 76.464 275.613 75.488 275.213 74.576C274.829 73.648 274.293 72.84 273.605 72.152C272.917 71.448 272.117 70.896 271.205 70.496C270.293 70.096 269.317 69.896 268.277 69.896C267.221 69.896 266.237 70.104 265.325 70.52C264.413 70.92 263.613 71.472 262.925 72.176C262.253 72.88 261.725 73.696 261.341 74.624C260.973 75.536 260.789 76.504 260.789 77.528Z" fill="white"/>
<path d="M283.692 76.616L283.812 79.568L283.668 78.992C283.94 78.176 284.452 77.536 285.204 77.072C285.972 76.592 286.82 76.352 287.748 76.352C288.628 76.352 289.34 76.616 289.884 77.144C290.428 77.656 290.708 78.328 290.724 79.16V86H289.572V79.472C289.556 78.864 289.364 78.36 288.996 77.96C288.628 77.56 288.092 77.352 287.388 77.336C286.764 77.336 286.18 77.488 285.636 77.792C285.092 78.096 284.652 78.52 284.316 79.064C283.996 79.608 283.836 80.24 283.836 80.96V86H282.708V76.616H283.692Z" fill="white"/>
<path d="M296.909 67.76H298.037V86H296.909V67.76Z" fill="white"/>
<path d="M304.22 76.616H305.348V86H304.22V76.616ZM303.98 73.16C303.98 72.936 304.068 72.752 304.244 72.608C304.42 72.448 304.612 72.368 304.82 72.368C305.044 72.368 305.236 72.448 305.396 72.608C305.556 72.752 305.636 72.936 305.636 73.16C305.636 73.4 305.556 73.6 305.396 73.76C305.236 73.904 305.044 73.976 304.82 73.976C304.612 73.976 304.42 73.896 304.244 73.736C304.068 73.576 303.98 73.384 303.98 73.16Z" fill="white"/>
<path d="M312.514 76.616L312.634 79.568L312.49 78.992C312.762 78.176 313.274 77.536 314.026 77.072C314.794 76.592 315.642 76.352 316.57 76.352C317.45 76.352 318.162 76.616 318.706 77.144C319.25 77.656 319.53 78.328 319.546 79.16V86H318.394V79.472C318.378 78.864 318.186 78.36 317.818 77.96C317.45 77.56 316.914 77.352 316.21 77.336C315.586 77.336 315.002 77.488 314.458 77.792C313.914 78.096 313.474 78.52 313.138 79.064C312.818 79.608 312.658 80.24 312.658 80.96V86H311.53V76.616H312.514Z" fill="white"/>
<path d="M329.812 86.192C328.836 86.192 327.972 85.976 327.22 85.544C326.468 85.112 325.876 84.528 325.444 83.792C325.028 83.04 324.82 82.2 324.82 81.272C324.82 80.36 325.044 79.528 325.492 78.776C325.94 78.024 326.54 77.424 327.292 76.976C328.06 76.528 328.908 76.304 329.836 76.304C330.956 76.304 331.892 76.632 332.644 77.288C333.412 77.944 333.964 78.8 334.3 79.856L326.092 83.024L325.756 82.208L333.268 79.28L333.028 79.616C332.756 78.976 332.34 78.424 331.78 77.96C331.236 77.496 330.564 77.264 329.764 77.264C329.044 77.264 328.396 77.44 327.82 77.792C327.244 78.144 326.78 78.616 326.428 79.208C326.092 79.8 325.924 80.472 325.924 81.224C325.924 81.928 326.084 82.584 326.404 83.192C326.74 83.8 327.204 84.288 327.796 84.656C328.388 85.024 329.068 85.208 329.836 85.208C330.348 85.208 330.836 85.112 331.3 84.92C331.78 84.728 332.204 84.48 332.572 84.176L333.148 84.992C332.7 85.344 332.18 85.632 331.588 85.856C331.012 86.08 330.42 86.192 329.812 86.192Z" fill="white"/>
<path d="M0 48H380V49.8H0V48Z" fill="white"/>
<path d="M0 52H380V52.9H0V52Z" fill="white" fill-opacity="0.36"/>
</svg>
